<?xml version="1.0" encoding="utf-8"?>
<svg viewBox="0 0 119.306 118.91803278688525" style="max-height: 500px" xmlns="http://www.w3.org/2000/svg">
  <path d="M69.531464,1.000000 &#10;&#9;C76.733307,3.667865 83.885719,5.600649 90.115120,9.152325 &#10;&#9;C104.311279,17.246231 113.743065,29.711340 116.835716,45.685890 &#10;&#9;C122.303749,73.930115 112.777405,97.057114 87.134323,111.827110 &#10;&#9;C82.134132,114.707138 75.926636,115.491089 70.138000,117.620926 &#10;&#9;C63.312355,118.000000 56.624710,118.000000 49.330605,117.620987 &#10;&#9;C47.258808,117.074493 45.711830,117.154411 44.340576,116.701859 &#10;&#9;C27.734852,111.221535 14.151712,101.993904 6.888082,85.411018 &#10;&#9;C4.561738,80.099960 2.942667,74.479111 1.000000,69.000000 &#10;&#9;C1.000000,62.978848 1.000000,56.957695 1.381767,50.326942 &#10;&#9;C4.156334,33.253624 12.202799,20.050079 26.111019,11.181194 &#10;&#9;C33.073605,6.741348 41.329205,4.329222 49.000000,1.000000 &#10;&#9;C55.687645,1.000000 62.375290,1.000000 69.531464,1.000000 &#10;M38.479042,57.284687 &#10;&#9;C28.723846,65.452217 18.968653,73.619759 9.222823,81.798180 &#10;&#9;C17.530163,101.356461 37.566597,114.425323 58.249962,114.946823 &#10;&#9;C69.109367,115.220634 79.009132,111.759773 88.292076,106.376427 &#10;&#9;C96.806396,101.438820 103.220314,94.391281 107.945778,85.864372 &#10;&#9;C108.632095,84.625931 108.409805,81.716484 107.474304,80.931740 &#10;&#9;C100.094696,74.741409 92.439644,68.879425 84.736603,62.270641 &#10;&#9;C77.650101,54.853306 70.573769,47.426212 63.471180,40.024319 &#10;&#9;C61.210258,37.668121 54.973785,37.614712 53.183884,39.834602 &#10;&#9;C48.517616,45.621857 43.822029,51.385471 38.479042,57.284687 &#10;M98.665146,20.836199 &#10;&#9;C78.394875,0.752883 47.244770,-0.998125 25.470015,16.275034 &#10;&#9;C3.638918,33.592884 0.620101,63.372654 8.294103,77.165291 &#10;&#9;C22.509212,68.780891 41.608036,51.247021 49.607437,39.237164 &#10;&#9;C53.826775,32.902481 61.139973,32.743683 66.639450,38.308777 &#10;&#9;C77.276169,49.072399 88.079712,59.680202 99.086884,70.063431 &#10;&#9;C102.591064,73.368973 106.959000,75.758850 111.127914,78.706451 &#10;&#9;C118.491371,57.748337 113.955765,36.956272 98.665146,20.836199 &#10;z" stroke="none" opacity="1.000000" fill="#060607"/>
  <path d="M98.915642,21.086731 &#10;&#9;C113.955765,36.956272 118.491371,57.748337 111.127914,78.706451 &#10;&#9;C106.959000,75.758850 102.591064,73.368973 99.086884,70.063431 &#10;&#9;C88.079712,59.680202 77.276169,49.072399 66.639450,38.308777 &#10;&#9;C61.139973,32.743683 53.826775,32.902481 49.607437,39.237164 &#10;&#9;C41.608036,51.247021 22.509212,68.780891 8.294103,77.165291 &#10;&#9;C0.620101,63.372654 3.638918,33.592884 25.470015,16.275034 &#10;&#9;C47.244770,-0.998125 78.394875,0.752883 98.915642,21.086731 &#10;z" stroke="none" opacity="1.000000" fill="#36C4F1"/>
  <path d="M84.869347,62.916412 &#10;&#9;C92.439644,68.879425 100.094696,74.741409 107.474304,80.931740 &#10;&#9;C108.409805,81.716484 108.632095,84.625931 107.945778,85.864372 &#10;&#9;C103.220314,94.391281 96.806396,101.438820 88.292076,106.376427 &#10;&#9;C79.009132,111.759773 69.109367,115.220634 58.249962,114.946823 &#10;&#9;C37.566597,114.425323 17.530163,101.356461 9.218142,81.792740 &#10;&#9;C18.968653,73.619759 28.723846,65.452217 39.070011,57.473034 &#10;&#9;C38.745457,60.906803 37.958954,64.196243 36.871834,67.383133 &#10;&#9;C36.064243,69.750595 34.866734,71.985046 33.483261,75.084435 &#10;&#9;C37.863438,73.206276 41.093319,71.821335 45.221443,70.051247 &#10;&#9;C44.724586,73.694962 44.446762,75.732368 44.168941,77.769775 &#10;&#9;C44.576874,77.983788 44.984806,78.197792 45.392742,78.411804 &#10;&#9;C46.609818,76.473602 47.895950,74.574821 49.029709,72.589050 &#10;&#9;C51.449482,68.350800 53.237652,68.279449 56.537895,71.729858 &#10;&#9;C58.519257,73.801369 61.132820,75.268196 63.462250,77.006783 &#10;&#9;C64.354637,73.997704 65.465469,71.030571 66.054375,67.963226 &#10;&#9;C66.387398,66.228661 65.719131,64.326103 65.761429,62.505241 &#10;&#9;C65.812370,60.312553 66.138855,58.126263 66.346054,55.937202 &#10;&#9;C66.875298,55.688637 67.404541,55.440071 67.933784,55.191505 &#10;&#9;C73.390846,60.873283 78.847900,66.555061 84.304955,72.236839 &#10;&#9;C84.689583,71.957268 85.074203,71.677696 85.458824,71.398132 &#10;&#9;C84.792969,69.996277 84.323219,68.449776 83.418930,67.223793 &#10;&#9;C81.726776,64.929672 82.814835,63.819828 84.869347,62.916412 &#10;z" stroke="none" opacity="1.000000" fill="#1A467F"/>
  <path d="M84.802979,62.593529 &#10;&#9;C82.814835,63.819828 81.726776,64.929672 83.418930,67.223793 &#10;&#9;C84.323219,68.449776 84.792969,69.996277 85.458824,71.398132 &#10;&#9;C85.074203,71.677696 84.689583,71.957268 84.304955,72.236839 &#10;&#9;C78.847900,66.555061 73.390846,60.873283 67.933784,55.191505 &#10;&#9;C67.404541,55.440071 66.875298,55.688637 66.346054,55.937202 &#10;&#9;C66.138855,58.126263 65.812370,60.312553 65.761429,62.505241 &#10;&#9;C65.719131,64.326103 66.387398,66.228661 66.054375,67.963226 &#10;&#9;C65.465469,71.030571 64.354637,73.997704 63.462250,77.006783 &#10;&#9;C61.132820,75.268196 58.519257,73.801369 56.537895,71.729858 &#10;&#9;C53.237652,68.279449 51.449482,68.350800 49.029709,72.589050 &#10;&#9;C47.895950,74.574821 46.609818,76.473602 45.392742,78.411804 &#10;&#9;C44.984806,78.197792 44.576874,77.983788 44.168941,77.769775 &#10;&#9;C44.446762,75.732368 44.724586,73.694962 45.221443,70.051247 &#10;&#9;C41.093319,71.821335 37.863438,73.206276 33.483261,75.084435 &#10;&#9;C34.866734,71.985046 36.064243,69.750595 36.871834,67.383133 &#10;&#9;C37.958954,64.196243 38.745457,60.906803 39.399555,57.409946 &#10;&#9;C43.822029,51.385471 48.517616,45.621857 53.183884,39.834602 &#10;&#9;C54.973785,37.614712 61.210258,37.668121 63.471180,40.024319 &#10;&#9;C70.573769,47.426212 77.650101,54.853306 84.802979,62.593529 &#10;z" stroke="none" opacity="1.000000" fill="#FAFAFB"/>
  <ellipse style="fill: rgb(216, 216, 216); stroke: rgb(0, 0, 0); stroke-width: 2px; fill-opacity: 0;" cx="59.607" cy="59.461" rx="58.644" ry="58.261"/>
</svg>